<svg xmlns="http://www.w3.org/2000/svg" viewBox="0 0 800 600">
  <!-- Background gradient representing the tension between worlds -->
  <defs>
    <linearGradient id="bgGradient" x1="0%" y1="0%" x2="100%" y2="100%">
      <stop offset="0%" style="stop-color:#0B0B3B;stop-opacity:1" />
      <stop offset="100%" style="stop-color:#3D0C40;stop-opacity:1" />
    </linearGradient>
    
    <!-- Digital particle effect -->
    <filter id="digitalNoise" x="0%" y="0%" width="100%" height="100%">
      <feTurbulence type="fractalNoise" baseFrequency="0.65" numOctaves="3" stitchTiles="stitch" result="noise"/>
      <feColorMatrix type="saturate" values="0" in="noise" result="desaturatedNoise"/>
      <feComponentTransfer in="desaturatedNoise" result="highContrastNoise">
        <feFuncR type="discrete" tableValues="0 0.5 1"/>
        <feFuncG type="discrete" tableValues="0 0.5 1"/>
        <feFuncB type="discrete" tableValues="0 0.5 1"/>
      </feComponentTransfer>
      <feBlend in="SourceGraphic" in2="highContrastNoise" mode="overlay" result="blend"/>
    </filter>
    
    <!-- Glow effect -->
    <filter id="glow" x="-20%" y="-20%" width="140%" height="140%">
      <feGaussianBlur stdDeviation="5" result="blur" />
      <feComposite in="SourceGraphic" in2="blur" operator="over" />
    </filter>
  </defs>
  
  <!-- Background -->
  <rect width="800" height="600" fill="url(#bgGradient)" />
  
  <!-- Digital particles -->
  <rect x="0" y="0" width="800" height="600" fill="url(#bgGradient)" opacity="0.3" filter="url(#digitalNoise)" />
  
  <!-- Atlas figure silhouette -->
  <path d="M400 180 C380 190, 370 210, 370 240 C370 270, 380 290, 400 300 C420 290, 430 270, 430 240 C430 210, 420 190, 400 180 Z" fill="#1E90FF" opacity="0.7" />
  <path d="M370 245 L340 320 L350 400 L400 480 L450 400 L460 320 L430 245" fill="#1E90FF" opacity="0.6" />
  <path d="M350 330 L330 350 L330 420 L350 440" fill="#1E90FF" opacity="0.5" />
  <path d="M450 330 L470 350 L470 420 L450 440" fill="#1E90FF" opacity="0.5" />
  
  <!-- Digital world sphere -->
  <circle cx="400" cy="150" r="100" fill="none" stroke="#4DD0E1" stroke-width="2" stroke-dasharray="5,3" />
  <circle cx="400" cy="150" r="95" fill="none" stroke="#4DD0E1" stroke-width="1" />
  <circle cx="400" cy="150" r="90" fill="none" stroke="#4DD0E1" stroke-width="1" opacity="0.6" />
  
  <!-- Digital connections -->
  <line x1="350" y1="100" x2="450" y2="200" stroke="#64FFDA" stroke-width="1" />
  <line x1="350" y1="200" x2="450" y2="100" stroke="#64FFDA" stroke-width="1" />
  <line x1="330" y1="150" x2="470" y2="150" stroke="#64FFDA" stroke-width="1" />
  <line x1="400" y1="80" x2="400" y2="220" stroke="#64FFDA" stroke-width="1" />
  
  <!-- Node points with glow -->
  <circle cx="350" cy="100" r="5" fill="#18FFFF" filter="url(#glow)" />
  <circle cx="450" cy="200" r="5" fill="#18FFFF" filter="url(#glow)" />
  <circle cx="350" cy="200" r="5" fill="#18FFFF" filter="url(#glow)" />
  <circle cx="450" cy="100" r="5" fill="#18FFFF" filter="url(#glow)" />
  <circle cx="330" cy="150" r="5" fill="#18FFFF" filter="url(#glow)" />
  <circle cx="470" cy="150" r="5" fill="#18FFFF" filter="url(#glow)" />
  <circle cx="400" cy="80" r="5" fill="#18FFFF" filter="url(#glow)" />
  <circle cx="400" cy="220" r="5" fill="#18FFFF" filter="url(#glow)" />
  
  <!-- Binary streams -->
  <text x="320" y="110" fill="#EEFFFF" font-family="monospace" font-size="8" opacity="0.7">10110010</text>
  <text x="420" y="130" fill="#EEFFFF" font-family="monospace" font-size="8" opacity="0.7">01001110</text>
  <text x="360" y="180" fill="#EEFFFF" font-family="monospace" font-size="8" opacity="0.7">11100101</text>
  <text x="440" y="170" fill="#EEFFFF" font-family="monospace" font-size="8" opacity="0.7">00101101</text>
  
  <!-- Human reality elements -->
  <path d="M200 450 C250 420, 350 420, 400 450 C450 480, 550 480, 600 450" fill="none" stroke="#FFD54F" stroke-width="2" stroke-dasharray="2,2" />
  <circle cx="220" cy="480" r="15" fill="#FF7043" opacity="0.6" />
  <circle cx="300" cy="500" r="20" fill="#FF7043" opacity="0.5" />
  <circle cx="400" cy="490" r="15" fill="#FF7043" opacity="0.7" />
  <circle cx="500" cy="510" r="25" fill="#FF7043" opacity="0.5" />
  <circle cx="580" cy="485" r="18" fill="#FF7043" opacity="0.6" />
  
  <!-- Connecting lines between worlds -->
  <line x1="370" y1="220" x2="320" y2="460" stroke="#FFFFFF" stroke-width="0.5" opacity="0.3" />
  <line x1="400" y1="240" x2="400" y2="470" stroke="#FFFFFF" stroke-width="0.5" opacity="0.3" />
  <line x1="430" y1="220" x2="480" y2="460" stroke="#FFFFFF" stroke-width="0.5" opacity="0.3" />
  
  <!-- Title -->
  <text x="400" y="40" fill="#FFFFFF" font-family="Arial, sans-serif" font-size="24" text-anchor="middle" font-weight="bold">THE ATLAS PARADOX</text>
  <text x="400" y="70" fill="#B2EBF2" font-family="Arial, sans-serif" font-size="16" text-anchor="middle" font-style="italic">Carrying Digital Worlds While Standing in Human Reality</text>
  
  <!-- Bottom quote -->
  <text x="400" y="550" fill="#FFFFFF" font-family="Arial, sans-serif" font-size="14" text-anchor="middle" font-style="italic">"The weight we carry is not the world itself, but our perception of it."</text>
</svg>
